# AST/ASF file generated using VICON BodyLanguage
# -----------------------------------------------
:version 1.10
:name VICON
:units
  mass 1.0
  length 0.45
  angle deg
:documentation
   .ast/.asf automatically generated from VICON data using
   VICON BodyBuilder and BodyLanguage model FoxedUp or BRILLIANT.MOD
:root
   order TX TY TZ RX RY RZ
   axis XYZ
   position 0 0 0  
   orientation 0 0 0 
:bonedata
  begin
     id 1 
     name lhipjoint
     direction 0.547975 -0.797114 0.253638 
     length 2.36201 
     axis 0 0 0  XYZ
  end
  begin
     id 2 
     name lfemur
     direction 0.34202 -0.939693 0  
     length 7.69075  
     axis 0 0 20  XYZ
    dof rx ry rz
    limits (-160.0 20.0)
           (-70.0 70.0)
           (-60.0 70.0)
  end
  begin
     id 3 
     name ltibia
     direction 0.34202 -0.939693 0   
     length 7.91399   
     axis 0 0 20   XYZ
    dof rx
    limits (-10.0 170.0)
  end
  begin
     id 4 
     name lfoot
     direction 0.0705293 -0.193778 0.978507   
     length 2.13618   
     axis -90 7.62852e-016 20   XYZ
    dof rx rz
    limits (-45.0 90.0)
           (-70.0 20.0)
  end
  begin
     id 5 
     name ltoes
     direction 1.53592e-011 -4.21925e-011 1   
     length 1.07518   
     axis -90 7.62852e-016 20   XYZ
    dof rx
    limits (-90.0 20.0)
  end
  begin
     id 6 
     name rhipjoint
     direction -0.57 -0.782963 0.249136   
     length 2.4047  
     axis 0 0 0  XYZ 
  end
  begin
     id 7 
     name rfemur
     direction -0.34202 -0.939693 0   
     length 7.51486   
     axis 0 0 -20   XYZ
    dof rx ry rz
    limits (-160.0 20.0)
           (-70.0 70.0)
           (-70.0 60.0)
  end
  begin
     id 8 
     name rtibia
     direction -0.34202 -0.939693 0   
     length 8.08317   
     axis 0 0 -20   XYZ
    dof rx
    limits (-10.0 170.0)
 end
 begin
     id 9 
     name rfoot
     direction -0.104954 -0.281256 0.953876   
     length 2.30343  
     axis -90 -7.62852e-016 -20   XYZ
    dof rx rz
    limits (-45.0 90.0)
           (-20.0 70.0)
  end
  begin
     id 10 
     name rtoes
     direction -1.53556e-011 -4.21922e-011 1   
     length 1.14803   
     axis -90 -7.62852e-016 -20   XYZ
    dof rx
    limits (-90.0 20.0)
  end
  begin
     id 11 
     name lowerback
     direction -0.0152855 0.99353 -0.11254   
     length 2.05311   
     axis 0 0 0   XYZ
    dof rx ry rz
    limits (-20.0 45.0)
           (-30.0 30.0)
           (-30.0 30.0)
  end
  begin
     id 12 
     name upperback
     direction -0.00157509 0.999443 -0.033332   
     length 2.06353   
     axis 0 0 0   XYZ
    dof rx ry rz
    limits (-20.0 45.0)
           (-30.0 30.0)
           (-30.0 30.0)
  end
  begin
     id 13 
     name thorax
     direction 0.00577788 0.999804 0.0189484   
     length 2.08472   
     axis 0 0 0   XYZ
    dof rx ry rz
    limits (-20.0 45.0)
           (-30.0 30.0)
           (-30.0 30.0)
  end
  begin
     id 14 
     name lowerneck
     direction -1.09301e-005 0.994719 0.10264   
     length 1.76249   
     axis 0 0 0   XYZ
    dof rx ry rz
    limits (-20.0 45.0)
           (-30.0 30.0)
           (-30.0 30.0)
  end
  begin
     id 15 
     name upperneck
     direction 0.0495018 0.988526 -0.142706   
     length 1.77897   
     axis 0 0 0   XYZ
    dof rx ry rz
    limits (-20.0 45.0)
           (-30.0 30.0)
           (-30.0 30.0)
  end
  begin
     id 16
     name head
     direction 0.0142736 0.998114 -0.0597101  
     length 1.78934  
     axis 0 0 0   XYZ
    dof rx ry rz
    limits (-20.0 45.0)
           (-30.0 30.0)
           (-30.0 30.0)
  end
  begin
     id 17 
     name lclavicle
     direction 0.918111 0.396107 -0.0130883  
     length 3.37276  
     axis 0 0 0   XYZ
    dof ry rz
    limits (-20.0 10.0)
           (0.0 20.0)
  end
  begin
     id 18 
     name lhumerus
     direction 1 -4.48975e-011 -3.26108e-027   
     length 5.34298   
     axis 180 -30 -90   XYZ
    dof rx ry rz
    limits (-60.0 90.0)
           (-90.0 90.0)
           (-90.0 90.0)
  end
  begin
     id 19
     name lradius
     direction 1 -4.48964e-011 -8.84413e-028   
     length 3.67262   
     axis 180 -30 -90   XYZ
    dof rx
    limits (-10.0 170.0)
  end
  begin
     id 20
     name lwrist
     direction 1 -4.48991e-011 -1.24264e-027   
     length 1.83631   
     axis -2.17013e-015 90 90   XYZ
    dof ry
    limits (-180.0 0.0)
 end
  begin
     id 21 
     name lhand
     direction 1 -4.48855e-011 -2.48528e-027   
     length 0.599298   
     axis 1.58582e-015 90 90   XYZ
    dof rx rz
    limits (-90.0 90.0)
           (-45.0 45.0)
  end
  begin
     id 22 
     name lfingers
     direction 1 -4.48811e-011 -4.97056e-027   
     length 0.48317   
     axis 3.17164e-015 90 90   XYZ
    dof rx
    limits (0.0 90.0)
  end
  begin
     id 23
     name lthumb
     direction 0.707107 -6.34882e-011 0.707107   
     length 0.693738   
     axis -90 45 2.85299e-015   XYZ
    dof rx rz
    limits (-45.0 45.0)
           (-45.0 45.0)
  end
  begin
     id 24 
     name rclavicle
     direction -0.920511 0.384752 -0.0680135   
     length 3.43787  
     axis 0 0 0   XYZ 
    dof ry rz
    limits (-10.0 20.0)
           (-20.0 0.0)
  end
  begin
     id 25 
     name rhumerus
     direction -0.999976 -0.00330524 0.00603274  
     length 5.5498   
     axis 180 30 90   XYZ
    dof rx ry rz
    limits (-90.0 60.0)
           (-90.0 90.0)
           (-90.0 90.0)
  end
  begin
     id 26 
     name rradius
     direction -1 -4.48967e-011 8.62438e-027   
     length 3.69401   
     axis 180 30 90   XYZ
    dof rx
    limits (-10.0 170.0)
  end
  begin
     id 27 
     name rwrist
     direction -1 -4.4897e-011 9.54866e-027   
     length 1.84701   
     axis -7.69462e-015 -90 -90   XYZ
    dof ry
    limits (-180.0 0.0)
  end
  begin
     id 28
     name rhand
     direction -1 -4.48982e-011 1.90973e-026   
     length 0.638113   
     axis -1.21857e-014 -90 -90   XYZ
    dof rx rz
    limits (-90.0 90.0)
           (-45.0 45.0)
  end
  begin
     id 29
     name rfingers
     direction -1 -4.48936e-011 3.81946e-026   
     length 0.514463   
     axis -2.43714e-014 -90 -90   XYZ
    dof rx
    limits (0.0 90.0)
  end
  begin
     id 30
     name rthumb
     direction -0.707107 -6.34942e-011 0.707107   
     length 0.738669   
     axis -90 -45 -2.85299e-015   XYZ
    dof rx rz
    limits (-45.0 45.0)
           (-45.0 45.0)
  end
:hierarchy
  begin
    root lhipjoint rhipjoint lowerback
    lhipjoint lfemur
    lfemur ltibia
    ltibia lfoot
    lfoot ltoes
    rhipjoint rfemur
    rfemur rtibia
    rtibia rfoot
    rfoot rtoes
    lowerback upperback
    upperback thorax
    thorax lowerneck lclavicle rclavicle
    lowerneck upperneck
    upperneck head
    lclavicle lhumerus
    lhumerus lradius
    lradius lwrist
    lwrist lhand lthumb
    lhand lfingers
    rclavicle rhumerus
    rhumerus rradius
    rradius rwrist
    rwrist rhand rthumb
    rhand rfingers
  end

#!OML:ASF F:\twosubjects\two\Thursday\Session 1\Rory.ASF
:FULLY-SPECIFIED
:DEGREES
68
root 7.35052 10.5192 11.7411 168.012 -4.8779 179.594
lowerback 40.4011 3.46233 4.47496
upperback 17.4984 -1.06754 -0.662811
thorax 0.0761903 -3.00646 -2.64138
lowerneck -12.7544 -2.96576 -4.75316
upperneck -10.9708 -4.37883 7.33521
head -1.07175 -2.66383 3.08113
rclavicle -2.0276e-014 -4.96962e-016
rhumerus 39.625 30.8279 -47.9383
rradius 66.57
rwrist 7.67361
rhand -11.7425 10.5745
rfingers 7.12502
rthumb 14.3052 -18.9128
lclavicle -2.0276e-014 -4.96962e-016
lhumerus 40.7077 -33.4969 41.6232
lradius 64.9142
lwrist -23.4529
lhand -18.2365 14.3895
lfingers 7.12502
lthumb 8.04205 44.2165
rfemur -78.0482 -21.8505 5.09819
rtibia 89.7184
rfoot 8.70448 -3.07632
rtoes -3.15719
lfemur -74.9061 24.133 -5.39989
ltibia 82.762
lfoot 13.2429 -6.00925
ltoes -6.9737
69
root 7.35326 10.5241 11.7471 167.25 -4.86024 180.45
lowerback 40.578 3.25377 5.12811
upperback 17.6377 -1.19478 -0.510908
thorax 0.201736 -3.07977 -2.77842
lowerneck -12.2557 -2.87895 -4.66502
upperneck -11.291 -4.28346 7.33022
head -1.2675 -2.63397 3.08468
rclavicle -5.76476e-015 3.37934e-014
rhumerus 39.9583 30.9586 -47.8186
rradius 66.3627
rwrist 8.05417
rhand -11.2605 10.7255
rfingers 7.12502
rthumb 14.7696 -18.7283
lclavicle -5.76476e-015 3.37934e-014
lhumerus 41.715 -32.8836 39.7343
lradius 64.7085
lwrist -22.1101
lhand -16.9875 12.9673
lfingers 7.12502
lthumb 9.24738 42.7445
rfemur -77.0712 -21.6908 5.67444
rtibia 89.8984
rfoot 8.54147 -2.18437
rtoes -9.54129
lfemur -74.4532 24.3764 -4.43956
ltibia 82.8405
lfoot 13.9191 -5.30098
ltoes 1.66676
70
root 7.36015 10.5261 11.7531 166.568 -4.92 181.147
lowerback 40.5448 3.14146 5.76109
upperback 17.8379 -1.20354 -0.398183
thorax 0.464582 -3.08077 -2.9963
lowerneck -12.2047 -3.20515 -4.99617
upperneck -10.9044 -4.60976 8.26103
head -1.09356 -2.76794 3.44683
rclavicle 6.95746e-015 -2.38542e-015
rhumerus 39.9449 30.719 -47.7703
rradius 66.3176
rwrist 8.31898
rhand -10.6821 11.6846
rfingers 7.12502
rthumb 15.3267 -17.7274
lclavicle 6.95746e-015 -2.38542e-015
lhumerus 43.3212 -32.6722 39.306
lradius 63.6193
lwrist -21.8097
lhand -15.7096 12.8956
lfingers 7.12502
lthumb 10.4803 42.6143
rfemur -76.2087 -21.5751 6.00075
rtibia 90.0998
rfoot 8.38 -1.74838
rtoes -14.4827
lfemur -74.157 24.6105 -3.77136
ltibia 82.8767
lfoot 14.9192 -5.85181
ltoes 2.89725
71
root 7.37065 10.5198 11.7586 166.057 -5.15989 181.285
lowerback 40.7718 3.01592 5.83045
upperback 17.6931 -1.27351 -0.501601
thorax 0.229055 -3.09698 -3.10074
lowerneck -11.6695 -3.27474 -4.69597
upperneck -10.9209 -4.72191 8.03079
head -1.19234 -2.82465 3.31717
rclavicle 1.80894e-014 -1.53064e-014
rhumerus 39.6051 30.7215 -48.2168
rradius 66.1873
rwrist 8.46149
rhand -10.1953 13.447
rfingers 7.12502
rthumb 15.7955 -15.9286
lclavicle 1.80894e-014 -1.53064e-014
lhumerus 41.1292 -33.4151 40.9643
lradius 64.6673
lwrist -23.6369
lhand -15.8653 15.4564
lfingers 7.12502
lthumb 10.3301 45.1827
rfemur -75.509 -21.532 5.62697
rtibia 90.3044
rfoot 8.06912 -2.39763
rtoes -11.2102
lfemur -74.1233 24.6618 -3.78357
ltibia 82.9071
lfoot 15.7363 -5.53492
ltoes 5.7977
72
root 7.38334 10.5113 11.7676 165.425 -5.41632 181.573
lowerback 41.0749 2.81676 5.91881
upperback 17.6535 -1.50423 -0.555942
thorax 0.0819453 -3.22066 -3.11283
lowerneck -11.3477 -3.1484 -4.13788
upperneck -11.1848 -4.65087 7.40913
head -1.36613 -2.81755 3.01637
rclavicle -1.98785e-016 -1.59028e-015
rhumerus 39.88 30.7477 -48.6407
rradius 65.7514
rwrist 9.13953
rhand -9.43884 14.9217
rfingers 7.12502
rthumb 16.524 -14.3947
lclavicle -1.98785e-016 -1.59028e-015
lhumerus 42.2777 -33.1245 38.2777
lradius 64.9617
lwrist -21.1963
lhand -15.4226 15.4367
lfingers 7.12502
lthumb 10.7571 45.1413
rfemur -74.6327 -21.3641 5.23508
rtibia 90.4975
rfoot 7.31481 -3.69765
rtoes -0.71651
lfemur -74.1087 24.7525 -3.63132
ltibia 82.9206
lfoot 17.0964 -4.7333
ltoes 12.1658
73
root 7.4015 10.5101 11.7828 164.834 -5.77524 181.414
lowerback 40.7181 2.95952 5.35755
upperback 18.2314 -1.81576 -0.452891
thorax 0.802797 -3.49401 -2.66635
lowerneck -11.7638 -3.0363 -4.33762
upperneck -11.3876 -4.52277 7.58702
head -1.36475 -2.77547 3.11579
rclavicle -8.54774e-015 1.59028e-015
rhumerus 40.9964 30.4717 -48.3431
rradius 65.5458
rwrist 10.392
rhand -9.55395 15.1154
rfingers 7.12502
rthumb 16.4131 -14.2102
lclavicle -8.54774e-015 1.59028e-015
lhumerus 42.5014 -33.1919 38.2432
lradius 64.7429
lwrist -19.7834
lhand -17.9175 17.0116
lfingers 7.12502
lthumb 8.34999 46.8265
rfemur -73.8492 -21.232 4.26299
rtibia 90.6373
rfoot 7.31246 -3.30846
rtoes 0.819296
lfemur -74.0455 24.7391 -3.83878
ltibia 82.8793
lfoot 19.4996 -5.28296
ltoes 11.4372
74
root 7.41871 10.5141 11.802 164.433 -6.20653 181.109
lowerback 40.8391 3.07152 4.55039
upperback 18.2465 -1.99317 -0.376196
thorax 0.756668 -3.66096 -2.10918
lowerneck -11.8355 -3.06692 -4.93315
upperneck -11.2847 -4.47908 8.09626
head -1.29671 -2.7336 3.40106
rclavicle -3.97569e-016 -3.18055e-015
rhumerus 41.1356 30.515 -48.237
rradius 65.852
rwrist 11.6793
rhand -9.58225 15.0939
rfingers 7.12502
rthumb 16.3859 -14.2339
lclavicle -3.97569e-016 -3.18055e-015
lhumerus 42.0572 -32.6577 38.8019
lradius 64.9558
lwrist -21.7221
lhand -14.9848 15.8299
lfingers 7.12502
lthumb 11.1794 45.512
rfemur -73.2854 -21.093 2.98695
rtibia 90.6923
rfoot 8.3625 -1.3188
rtoes -6.53803
lfemur -74.0936 24.5251 -4.21051
ltibia 82.7377
lfoot 21.4432 -5.63294
ltoes 9.77503
75
root 7.43646 10.5186 11.8265 163.934 -6.48146 181.444
lowerback 40.9685 3.15375 4.4912
upperback 18.2908 -1.9356 -0.20172
thorax 0.779767 -3.66527 -1.91292
lowerneck -11.5195 -3.15588 -5.06195
upperneck -11.8897 -4.6214 8.17343
head -1.53756 -2.83874 3.47128
rclavicle -3.65764e-014 -5.56597e-015
rhumerus 40.7617 29.9692 -48.4024
rradius 66.4472
rwrist 12.5791
rhand -8.13189 17.0372
rfingers 7.12502
rthumb 17.7819 -12.1698
lclavicle -3.65764e-014 -5.56597e-015
lhumerus 42.2233 -32.0229 38.8522
lradius 65.4344
lwrist -23.3799
lhand -11.1636 12.9107
lfingers 7.12502
lthumb 14.8629 42.3576
rfemur -72.5178 -20.5805 2.14024
rtibia 90.681
rfoot 9.37374 -0.63704
rtoes -6.0032
lfemur -74.1411 24.374 -3.81529
ltibia 82.5172
lfoot 23.3863 -6.10668
ltoes 8.08869
76
root 7.45731 10.5168 11.8547 163.155 -6.65093 181.887
lowerback 41.4023 3.29148 4.63306
upperback 18.3339 -1.77007 0.036096
thorax 0.729272 -3.62879 -1.77789
lowerneck -10.8835 -3.27053 -5.40496
upperneck -12.6815 -4.7668 8.46413
head -1.88714 -2.94571 3.67443
rclavicle -1.23246e-014 -5.96354e-015
rhumerus 40.3163 29.291 -48.5422
rradius 67.1703
rwrist 12.9194
rhand -6.42304 19.4856
rfingers 7.12502
rthumb 19.4256 -9.56405
lclavicle -1.23246e-014 -5.96354e-015
lhumerus 42.3911 -31.3697 38.9075
lradius 66.3526
lwrist -24.8882
lhand -6.78483 10.4095
lfingers 7.12502
lthumb 19.0778 39.4938
rfemur -71.4667 -19.7029 1.16092
rtibia 90.6685
rfoot 10.5932 0.360621
rtoes -9.55832
lfemur -73.848 24.2839 -3.02083
ltibia 82.2048
lfoot 25.8888 -6.03156
ltoes 10.0558
77
root 7.47373 10.5137 11.8861 162.308 -6.726 182.401
lowerback 42.0485 3.38604 5.05655
upperback 18.1988 -1.47024 0.157385
thorax 0.430993 -3.4786 -1.93477
lowerneck -9.99259 -3.51468 -5.50917
upperneck -13.3292 -5.06968 8.96648
head -2.22093 -3.13143 3.91065
rclavicle 5.56597e-015 5.56597e-015
rhumerus 39.1954 28.51 -49.0434
rradius 68.1784
rwrist 12.8676
rhand -4.92641 20.5367
rfingers 7.12502
rthumb 20.8641 -8.3614
lclavicle 5.56597e-015 5.56597e-015
lhumerus 42.8991 -31.4548 38.2244
lradius 67.5892
lwrist -24.7681
lhand -5.23232 11.4399
lfingers 7.12502
lthumb 20.5702 40.37
rfemur -70.4592 -18.7958 0.260626
rtibia 90.5752
rfoot 12.0774 2.03681
rtoes -14.6311
lfemur -73.3849 24.2935 -2.10148
ltibia 81.8106
lfoot 28.0022 -7.21476
ltoes 9.59989
78
root 7.49022 10.5389 11.9393 161.594 -6.7363 182.841
lowerback 41.9647 3.57058 5.62945
upperback 18.5705 -1.19058 0.103147
thorax 0.911502 -3.3418 -2.40866
lowerneck -9.52339 -3.73766 -5.00496
upperneck -14.2251 -5.44372 9.30196
head -2.58316 -3.4104 3.97589
rclavicle -5.56597e-015 -3.97569e-015
rhumerus 38.1385 27.04 -49.8812
rradius 69.4045
rwrist 12.7172
rhand -3.55329 20.6445
rfingers 7.12502
rthumb 22.1829 -8.10273
lclavicle -5.56597e-015 -3.97569e-015
lhumerus 44.453 -31.277 36.6886
lradius 68.6717
lwrist -23.861
lhand -3.62263 12.1859
lfingers 7.12502
lthumb 22.1163 40.941
rfemur -69.4902 -17.8207 -0.571001
rtibia 90.1567
rfoot 13.8449 3.69856
rtoes -17.1097
lfemur -72.7532 24.2133 -1.21865
ltibia 81.2737
lfoot 29.3289 -7.54755
ltoes 13.8159
79
root 7.50391 10.5552 11.9757 161.148 -6.90689 182.628
lowerback 42.2633 3.91589 5.00414
upperback 18.4977 -0.979258 0.280719
thorax 0.738988 -3.30845 -1.95787
lowerneck -8.86934 -3.85688 -5.33255
upperneck -15.0227 -5.51548 9.83864
head -2.58842 -3.49869 3.88482
rclavicle -7.95139e-016 5.1684e-015
rhumerus 37.0308 26.4313 -50.3033
rradius 70.7279
rwrist 12.2358
rhand -1.9928 20.7882
rfingers 7.12502
rthumb 23.6803 -7.77315
lclavicle -7.95139e-016 5.1684e-015
lhumerus 44.5585 -30.8773 36.7839
lradius 69.698
lwrist -23.658
lhand -2.7101 12.3045
lfingers 7.12502
lthumb 22.9922 40.9532
rfemur -68.8277 -17.0315 -2.05365
rtibia 89.6887
rfoot 15.4175 3.31326
rtoes -10.3506
lfemur -72.1974 23.88 -0.901876
ltibia 80.847
lfoot 29.6486 -7.66147
ltoes 17.6949
80
root 7.5021 10.5515 12.0072 160.91 -7.10313 182.271
lowerback 42.0606 4.15907 4.35351
upperback 18.5299 -0.908018 0.372593
thorax 0.809719 -3.32208 -1.56067
lowerneck -8.22841 -3.9956 -5.8985
upperneck -15.4461 -5.6356 10.2542
head -2.77249 -3.56514 4.13283
rclavicle -2.78299e-015 -5.56597e-015
rhumerus 36.4571 25.966 -50.3677
rradius 71.7554
rwrist 11.1358
rhand -0.045368 22.4037
rfingers 7.12502
rthumb 25.5469 -5.90326
lclavicle -2.78299e-015 -5.56597e-015
lhumerus 44.0664 -30.2835 37.2016
lradius 71.0352
lwrist -23.3333
lhand -3.64961 12.6084
lfingers 7.12502
lthumb 22.0904 41.3666
rfemur -68.4179 -16.4486 -3.61809
rtibia 89.18
rfoot 16.8644 4.05275
rtoes -7.94299
lfemur -71.9005 23.5919 -0.835194
ltibia 80.5192
lfoot 29.3988 -8.24745
ltoes 17.5923
